<?xml version="1.0" encoding="utf-8"?>
<!-- Generator: Adobe Illustrator 23.0.6, SVG Export Plug-In . SVG Version: 6.00 Build 0)  -->
<svg version="1.1" id="Layer_1" xmlns="http://www.w3.org/2000/svg" xmlns:xlink="http://www.w3.org/1999/xlink" x="0px" y="0px"
	 viewBox="0 0 50 50" style="enable-background:new 0 0 50 50;" xml:space="preserve">
<style type="text/css">
	.st0{fill:#B4DC32;}
	.st1{fill:#0000BF;}
</style>
<circle class="st0" cx="25" cy="25" r="25"/>
<g>
	<g>
		<g>
			<path class="st1" d="M25,39c-0.8,0-1.5,0.7-1.5,1.5c0,0.8,0.7,1.5,1.5,1.5s1.5-0.7,1.5-1.5C26.5,39.6,25.8,39,25,39z M25,40.9
				c-0.3,0-0.5-0.2-0.5-0.5c0-0.3,0.2-0.5,0.5-0.5c0.3,0,0.5,0.2,0.5,0.5C25.5,40.7,25.3,40.9,25,40.9z"/>
			<path class="st1" d="M25,34.5c-0.8,0-1.5,0.7-1.5,1.5c0,0.8,0.7,1.5,1.5,1.5s1.5-0.7,1.5-1.5C26.5,35.2,25.8,34.5,25,34.5z
				 M25,36.5c-0.3,0-0.5-0.2-0.5-0.5c0-0.3,0.2-0.5,0.5-0.5c0.3,0,0.5,0.2,0.5,0.5C25.5,36.3,25.3,36.5,25,36.5z"/>
			<path class="st1" d="M25,30.1c-0.8,0-1.5,0.7-1.5,1.5c0,0.8,0.7,1.5,1.5,1.5s1.5-0.7,1.5-1.5C26.5,30.7,25.8,30.1,25,30.1z
				 M25,32c-0.3,0-0.5-0.2-0.5-0.5c0-0.3,0.2-0.5,0.5-0.5c0.3,0,0.5,0.2,0.5,0.5C25.5,31.8,25.3,32,25,32z"/>
			<polygon class="st1" points="34.2,20.1 25,10.9 15.8,20.1 14.4,18.7 25,8.1 35.6,18.7 			"/>
			<rect x="24" y="9.5" class="st1" width="2" height="18.5"/>
		</g>
	</g>
</g>
</svg>
