<?xml version="1.0" encoding="utf-8"?>
<!-- Generator: Adobe Illustrator 23.0.6, SVG Export Plug-In . SVG Version: 6.00 Build 0)  -->
<svg version="1.1" id="Layer_1" xmlns="http://www.w3.org/2000/svg" xmlns:xlink="http://www.w3.org/1999/xlink" x="0px" y="0px"
	 viewBox="0 0 80 80" style="enable-background:new 0 0 80 80;" xml:space="preserve">
<style type="text/css">
	.st0{fill:#FFFFFF;}
	.st1{fill:url(#SVGID_1_);}
	.st2{fill:url(#SVGID_2_);}
	.st3{fill:url(#SVGID_3_);}
	.st4{fill:url(#SVGID_4_);}
	.st5{fill:url(#SVGID_5_);}
	.st6{fill:url(#SVGID_6_);}
	.st7{fill:url(#SVGID_7_);}
	.st8{fill:url(#SVGID_8_);}
	.st9{fill:url(#SVGID_9_);}
	.st10{fill:url(#SVGID_10_);}
	.st11{fill:url(#SVGID_11_);}
	.st12{fill:url(#SVGID_12_);}
	.st13{fill:url(#SVGID_13_);}
	.st14{fill:url(#SVGID_14_);}
	.st15{fill:url(#SVGID_15_);}
	.st16{fill:url(#SVGID_16_);}
	.st17{fill:url(#SVGID_17_);}
	.st18{fill:url(#SVGID_18_);}
	.st19{fill:url(#SVGID_19_);}
	.st20{fill:url(#SVGID_20_);}
</style>
<g>
	<g>
		<path class="st0" d="M25.4,41.2c-0.7,0-1.2,0.5-1.2,1.2c0,0.7,0.5,1.2,1.2,1.2c0.7,0,1.2-0.5,1.2-1.2
			C26.6,41.8,26.1,41.2,25.4,41.2"/>
		<path class="st0" d="M29.7,8.8c-0.7,0-1.2,0.5-1.2,1.2c0,0.7,0.5,1.2,1.2,1.2c0.7,0,1.2-0.5,1.2-1.2C30.9,9.4,30.4,8.8,29.7,8.8"
			/>
		<path class="st0" d="M25.4,12.1c-0.7,0-1.2,0.5-1.2,1.2c0,0.7,0.5,1.2,1.2,1.2c0.7,0,1.2-0.5,1.2-1.2
			C26.6,12.6,26.1,12.1,25.4,12.1"/>
		<path class="st0" d="M22.2,16.4c-0.7,0-1.2,0.5-1.2,1.2c0,0.7,0.5,1.2,1.2,1.2c0.7,0,1.2-0.5,1.2-1.2
			C23.4,16.9,22.8,16.4,22.2,16.4"/>
		<path class="st0" d="M34.7,6.8c-0.7,0-1.2,0.5-1.2,1.2c0,0.7,0.5,1.2,1.2,1.2c0.7,0,1.2-0.5,1.2-1.2C35.9,7.3,35.3,6.8,34.7,6.8"
			/>
		<path class="st0" d="M20.1,23.8c0.7,0,1.2-0.5,1.2-1.2c0-0.7-0.5-1.2-1.2-1.2c-0.7,0-1.2,0.5-1.2,1.2
			C18.9,23.2,19.4,23.8,20.1,23.8"/>
		<path class="st0" d="M20.6,27.9c0-0.7-0.5-1.2-1.2-1.2c-0.7,0-1.2,0.5-1.2,1.2c0,0.7,0.5,1.2,1.2,1.2
			C20.1,29.1,20.6,28.5,20.6,27.9"/>
		<path class="st0" d="M21.3,33.2c0-0.7-0.5-1.2-1.2-1.2c-0.7,0-1.2,0.5-1.2,1.2c0,0.7,0.5,1.2,1.2,1.2
			C20.8,34.4,21.3,33.9,21.3,33.2"/>
		<path class="st0" d="M22.2,37c-0.7,0-1.2,0.5-1.2,1.2c0,0.7,0.5,1.2,1.2,1.2c0.7,0,1.2-0.5,1.2-1.2C23.4,37.5,22.8,37,22.2,37"/>
		<path class="st0" d="M54.6,41.2c-0.7,0-1.2,0.5-1.2,1.2c0,0.7,0.5,1.2,1.2,1.2c0.7,0,1.2-0.5,1.2-1.2
			C55.8,41.8,55.2,41.2,54.6,41.2"/>
		<path class="st0" d="M57.8,37c-0.7,0-1.2,0.5-1.2,1.2c0,0.7,0.5,1.2,1.2,1.2c0.7,0,1.2-0.5,1.2-1.2C59.1,37.5,58.5,37,57.8,37"/>
		<path class="st0" d="M54.6,12.1c-0.7,0-1.2,0.5-1.2,1.2c0,0.7,0.5,1.2,1.2,1.2c0.7,0,1.2-0.5,1.2-1.2
			C55.8,12.6,55.2,12.1,54.6,12.1"/>
		<path class="st0" d="M59.9,32c-0.7,0-1.2,0.5-1.2,1.2c0,0.7,0.5,1.2,1.2,1.2c0.7,0,1.2-0.5,1.2-1.2C61.1,32.5,60.6,32,59.9,32"/>
		<path class="st0" d="M60.6,26.7c-0.7,0-1.2,0.5-1.2,1.2c0,0.7,0.5,1.2,1.2,1.2c0.7,0,1.2-0.5,1.2-1.2
			C61.8,27.2,61.3,26.7,60.6,26.7"/>
		<path class="st0" d="M58.7,22.5c0,0.7,0.5,1.2,1.2,1.2c0.7,0,1.2-0.5,1.2-1.2c0-0.7-0.5-1.2-1.2-1.2
			C59.2,21.3,58.7,21.9,58.7,22.5"/>
		<path class="st0" d="M50.3,8.8L50.3,8.8c-0.7,0-1.2,0.5-1.2,1.2c0,0.7,0.5,1.2,1.2,1.2h0c0.7,0,1.2-0.5,1.2-1.2
			C51.5,9.4,51,8.8,50.3,8.8"/>
		<path class="st0" d="M57.8,18.8c0.7,0,1.2-0.5,1.2-1.2c0-0.7-0.5-1.2-1.2-1.2c-0.7,0-1.2,0.5-1.2,1.2
			C56.6,18.2,57.2,18.8,57.8,18.8"/>
		<path class="st0" d="M45.3,6.8c-0.7,0-1.2,0.5-1.2,1.2c0,0.7,0.5,1.2,1.2,1.2c0.7,0,1.2-0.5,1.2-1.2C46.5,7.3,46,6.8,45.3,6.8"/>
		<path class="st0" d="M40,6.1c-0.7,0-1.2,0.5-1.2,1.2c0,0.7,0.5,1.2,1.2,1.2c0.7,0,1.2-0.5,1.2-1.2C41.2,6.6,40.7,6.1,40,6.1"/>
		<path class="st0" d="M34.8,33.1C36.6,28.2,41,24,47.6,21c2.3,4.9,2.7,9.6,1.1,13.9c-2,5.7-7.1,9.8-11,12
			c0.8-6.1,3.2-10.2,3.2-10.3c0.3-0.6,0.2-1.3-0.4-1.7c-0.6-0.3-1.3-0.2-1.7,0.4c-0.1,0.2-2.6,4.4-3.5,10.6
			C33.7,41.3,33.4,37,34.8,33.1 M56.7,46.8c-3.1,3.3-5.7,6.2-5.7,10.2v1.2H39.5c-0.9-1.9-1.9-4.6-1.9-7.7c0-0.3,0-0.5,0-0.8
			c3.2-1.6,10.6-6.2,13.5-14.1c1.9-5.3,1.3-10.9-1.8-16.8l-0.5-1l-1,0.4c-7.8,3.3-13.1,8.2-15.2,14c-1.9,5.3-1.2,11.4,2,17.6l0.5,1
			l0,0c0.1,2.8,0.8,5.4,1.7,7.3h-7.7V57c0-4-2.7-6.9-5.7-10.2c-4.1-4.4-8.8-9.5-8.8-18.9C14.5,13.8,26,2.4,40,2.4
			c14,0,25.5,11.4,25.5,25.5C65.5,37.3,60.8,42.4,56.7,46.8 M47.3,72.7H32.7c-1.6,0-2.9-1-3.4-2.4h4.6v-2.4h-4.8v-2.4h4.8V63h-4.8
			v-2.4h9.7h0c0,0,0,0,0,0h12.2V63H36.4v2.4h14.5v2.4H36.4v2.4h14.3C50.2,71.7,48.9,72.7,47.3,72.7 M40,77.6c-1.6,0-2.9-1-3.4-2.4
			h6.9C42.9,76.6,41.6,77.6,40,77.6 M40,0C24.6,0,12.1,12.5,12.1,27.9c0,10.4,5.2,16.1,9.5,20.6c2.8,3.1,5.1,5.5,5.1,8.5v1.2v1.2
			v9.7c0,3.3,2.7,6.1,6.1,6.1h1.3c0.6,2.8,3,4.8,5.9,4.8c2.9,0,5.4-2.1,5.9-4.8h1.3c3.3,0,6.1-2.7,6.1-6.1v-9.7v-1.2V57
			c0-3,2.2-5.5,5.1-8.5c4.2-4.5,9.5-10.2,9.5-20.6C67.9,12.5,55.4,0,40,0"/>
	</g>
	<g>
		<linearGradient id="SVGID_1_" gradientUnits="userSpaceOnUse" x1="11.3421" y1="21.7693" x2="64.0289" y2="52.188">
			<stop  offset="0" style="stop-color:#BFD93B"/>
			<stop  offset="1" style="stop-color:#0C7AE6"/>
		</linearGradient>
		<path class="st1" d="M25.4,41.2c-0.7,0-1.2,0.5-1.2,1.2c0,0.7,0.5,1.2,1.2,1.2c0.7,0,1.2-0.5,1.2-1.2
			C26.6,41.8,26.1,41.2,25.4,41.2"/>
		<linearGradient id="SVGID_2_" gradientUnits="userSpaceOnUse" x1="11.3421" y1="21.7693" x2="64.0289" y2="52.188">
			<stop  offset="0" style="stop-color:#BFD93B"/>
			<stop  offset="1" style="stop-color:#0C7AE6"/>
		</linearGradient>
		<path class="st2" d="M29.7,8.8c-0.7,0-1.2,0.5-1.2,1.2c0,0.7,0.5,1.2,1.2,1.2c0.7,0,1.2-0.5,1.2-1.2C30.9,9.4,30.4,8.8,29.7,8.8"
			/>
		<linearGradient id="SVGID_3_" gradientUnits="userSpaceOnUse" x1="11.3421" y1="21.7693" x2="64.0289" y2="52.188">
			<stop  offset="0" style="stop-color:#BFD93B"/>
			<stop  offset="1" style="stop-color:#0C7AE6"/>
		</linearGradient>
		<path class="st3" d="M25.4,12.1c-0.7,0-1.2,0.5-1.2,1.2c0,0.7,0.5,1.2,1.2,1.2c0.7,0,1.2-0.5,1.2-1.2
			C26.6,12.6,26.1,12.1,25.4,12.1"/>
		<linearGradient id="SVGID_4_" gradientUnits="userSpaceOnUse" x1="11.3421" y1="21.7693" x2="64.0289" y2="52.188">
			<stop  offset="0" style="stop-color:#BFD93B"/>
			<stop  offset="1" style="stop-color:#0C7AE6"/>
		</linearGradient>
		<path class="st4" d="M22.2,16.4c-0.7,0-1.2,0.5-1.2,1.2c0,0.7,0.5,1.2,1.2,1.2c0.7,0,1.2-0.5,1.2-1.2
			C23.4,16.9,22.8,16.4,22.2,16.4"/>
		<linearGradient id="SVGID_5_" gradientUnits="userSpaceOnUse" x1="11.3421" y1="21.7693" x2="64.0289" y2="52.188">
			<stop  offset="0" style="stop-color:#BFD93B"/>
			<stop  offset="1" style="stop-color:#0C7AE6"/>
		</linearGradient>
		<path class="st5" d="M34.7,6.8c-0.7,0-1.2,0.5-1.2,1.2c0,0.7,0.5,1.2,1.2,1.2c0.7,0,1.2-0.5,1.2-1.2C35.9,7.3,35.3,6.8,34.7,6.8"
			/>
		<linearGradient id="SVGID_6_" gradientUnits="userSpaceOnUse" x1="11.3421" y1="21.7693" x2="64.0289" y2="52.188">
			<stop  offset="0" style="stop-color:#BFD93B"/>
			<stop  offset="1" style="stop-color:#0C7AE6"/>
		</linearGradient>
		<path class="st6" d="M20.1,23.8c0.7,0,1.2-0.5,1.2-1.2c0-0.7-0.5-1.2-1.2-1.2c-0.7,0-1.2,0.5-1.2,1.2
			C18.9,23.2,19.4,23.8,20.1,23.8"/>
		<linearGradient id="SVGID_7_" gradientUnits="userSpaceOnUse" x1="11.3421" y1="21.7693" x2="64.0289" y2="52.188">
			<stop  offset="0" style="stop-color:#BFD93B"/>
			<stop  offset="1" style="stop-color:#0C7AE6"/>
		</linearGradient>
		<path class="st7" d="M20.6,27.9c0-0.7-0.5-1.2-1.2-1.2c-0.7,0-1.2,0.5-1.2,1.2c0,0.7,0.5,1.2,1.2,1.2
			C20.1,29.1,20.6,28.5,20.6,27.9"/>
		<linearGradient id="SVGID_8_" gradientUnits="userSpaceOnUse" x1="11.3421" y1="21.7693" x2="64.0289" y2="52.188">
			<stop  offset="0" style="stop-color:#BFD93B"/>
			<stop  offset="1" style="stop-color:#0C7AE6"/>
		</linearGradient>
		<path class="st8" d="M21.3,33.2c0-0.7-0.5-1.2-1.2-1.2c-0.7,0-1.2,0.5-1.2,1.2c0,0.7,0.5,1.2,1.2,1.2
			C20.8,34.4,21.3,33.9,21.3,33.2"/>
		<linearGradient id="SVGID_9_" gradientUnits="userSpaceOnUse" x1="11.3421" y1="21.7693" x2="64.0289" y2="52.188">
			<stop  offset="0" style="stop-color:#BFD93B"/>
			<stop  offset="1" style="stop-color:#0C7AE6"/>
		</linearGradient>
		<path class="st9" d="M22.2,37c-0.7,0-1.2,0.5-1.2,1.2c0,0.7,0.5,1.2,1.2,1.2c0.7,0,1.2-0.5,1.2-1.2C23.4,37.5,22.8,37,22.2,37"/>
		<linearGradient id="SVGID_10_" gradientUnits="userSpaceOnUse" x1="11.3421" y1="21.7693" x2="64.0289" y2="52.188">
			<stop  offset="0" style="stop-color:#BFD93B"/>
			<stop  offset="1" style="stop-color:#0C7AE6"/>
		</linearGradient>
		<path class="st10" d="M54.6,41.2c-0.7,0-1.2,0.5-1.2,1.2c0,0.7,0.5,1.2,1.2,1.2c0.7,0,1.2-0.5,1.2-1.2
			C55.8,41.8,55.2,41.2,54.6,41.2"/>
		<linearGradient id="SVGID_11_" gradientUnits="userSpaceOnUse" x1="11.3421" y1="21.7693" x2="64.0289" y2="52.188">
			<stop  offset="0" style="stop-color:#BFD93B"/>
			<stop  offset="1" style="stop-color:#0C7AE6"/>
		</linearGradient>
		<path class="st11" d="M57.8,37c-0.7,0-1.2,0.5-1.2,1.2c0,0.7,0.5,1.2,1.2,1.2c0.7,0,1.2-0.5,1.2-1.2C59.1,37.5,58.5,37,57.8,37"/>
		<linearGradient id="SVGID_12_" gradientUnits="userSpaceOnUse" x1="11.3421" y1="21.7693" x2="64.0289" y2="52.188">
			<stop  offset="0" style="stop-color:#BFD93B"/>
			<stop  offset="1" style="stop-color:#0C7AE6"/>
		</linearGradient>
		<path class="st12" d="M54.6,12.1c-0.7,0-1.2,0.5-1.2,1.2c0,0.7,0.5,1.2,1.2,1.2c0.7,0,1.2-0.5,1.2-1.2
			C55.8,12.6,55.2,12.1,54.6,12.1"/>
		<linearGradient id="SVGID_13_" gradientUnits="userSpaceOnUse" x1="11.3421" y1="21.7693" x2="64.0289" y2="52.188">
			<stop  offset="0" style="stop-color:#BFD93B"/>
			<stop  offset="1" style="stop-color:#0C7AE6"/>
		</linearGradient>
		<path class="st13" d="M59.9,32c-0.7,0-1.2,0.5-1.2,1.2c0,0.7,0.5,1.2,1.2,1.2c0.7,0,1.2-0.5,1.2-1.2C61.1,32.5,60.6,32,59.9,32"/>
		<linearGradient id="SVGID_14_" gradientUnits="userSpaceOnUse" x1="11.3421" y1="21.7693" x2="64.0289" y2="52.188">
			<stop  offset="0" style="stop-color:#BFD93B"/>
			<stop  offset="1" style="stop-color:#0C7AE6"/>
		</linearGradient>
		<path class="st14" d="M60.6,26.7c-0.7,0-1.2,0.5-1.2,1.2c0,0.7,0.5,1.2,1.2,1.2c0.7,0,1.2-0.5,1.2-1.2
			C61.8,27.2,61.3,26.7,60.6,26.7"/>
		<linearGradient id="SVGID_15_" gradientUnits="userSpaceOnUse" x1="11.3421" y1="21.7693" x2="64.0289" y2="52.188">
			<stop  offset="0" style="stop-color:#BFD93B"/>
			<stop  offset="1" style="stop-color:#0C7AE6"/>
		</linearGradient>
		<path class="st15" d="M58.7,22.5c0,0.7,0.5,1.2,1.2,1.2c0.7,0,1.2-0.5,1.2-1.2c0-0.7-0.5-1.2-1.2-1.2
			C59.2,21.3,58.7,21.9,58.7,22.5"/>
		<linearGradient id="SVGID_16_" gradientUnits="userSpaceOnUse" x1="11.3421" y1="21.7693" x2="64.0289" y2="52.188">
			<stop  offset="0" style="stop-color:#BFD93B"/>
			<stop  offset="1" style="stop-color:#0C7AE6"/>
		</linearGradient>
		<path class="st16" d="M50.3,8.8L50.3,8.8c-0.7,0-1.2,0.5-1.2,1.2c0,0.7,0.5,1.2,1.2,1.2h0c0.7,0,1.2-0.5,1.2-1.2
			C51.5,9.4,51,8.8,50.3,8.8"/>
		<linearGradient id="SVGID_17_" gradientUnits="userSpaceOnUse" x1="11.3421" y1="21.7693" x2="64.0289" y2="52.188">
			<stop  offset="0" style="stop-color:#BFD93B"/>
			<stop  offset="1" style="stop-color:#0C7AE6"/>
		</linearGradient>
		<path class="st17" d="M57.8,18.8c0.7,0,1.2-0.5,1.2-1.2c0-0.7-0.5-1.2-1.2-1.2c-0.7,0-1.2,0.5-1.2,1.2
			C56.6,18.2,57.2,18.8,57.8,18.8"/>
		<linearGradient id="SVGID_18_" gradientUnits="userSpaceOnUse" x1="11.3421" y1="21.7693" x2="64.0289" y2="52.188">
			<stop  offset="0" style="stop-color:#BFD93B"/>
			<stop  offset="1" style="stop-color:#0C7AE6"/>
		</linearGradient>
		<path class="st18" d="M45.3,6.8c-0.7,0-1.2,0.5-1.2,1.2c0,0.7,0.5,1.2,1.2,1.2c0.7,0,1.2-0.5,1.2-1.2C46.5,7.3,46,6.8,45.3,6.8"/>
		<linearGradient id="SVGID_19_" gradientUnits="userSpaceOnUse" x1="11.3421" y1="21.7693" x2="64.0289" y2="52.188">
			<stop  offset="0" style="stop-color:#BFD93B"/>
			<stop  offset="1" style="stop-color:#0C7AE6"/>
		</linearGradient>
		<path class="st19" d="M40,6.1c-0.7,0-1.2,0.5-1.2,1.2c0,0.7,0.5,1.2,1.2,1.2c0.7,0,1.2-0.5,1.2-1.2C41.2,6.6,40.7,6.1,40,6.1"/>
		<linearGradient id="SVGID_20_" gradientUnits="userSpaceOnUse" x1="11.3421" y1="21.7693" x2="64.0289" y2="52.188">
			<stop  offset="0" style="stop-color:#BFD93B"/>
			<stop  offset="1" style="stop-color:#0C7AE6"/>
		</linearGradient>
		<path class="st20" d="M34.8,33.1C36.6,28.2,41,24,47.6,21c2.3,4.9,2.7,9.6,1.1,13.9c-2,5.7-7.1,9.8-11,12
			c0.8-6.1,3.2-10.2,3.2-10.3c0.3-0.6,0.2-1.3-0.4-1.7c-0.6-0.3-1.3-0.2-1.7,0.4c-0.1,0.2-2.6,4.4-3.5,10.6
			C33.7,41.3,33.4,37,34.8,33.1 M56.7,46.8c-3.1,3.3-5.7,6.2-5.7,10.2v1.2H39.5c-0.9-1.9-1.9-4.6-1.9-7.7c0-0.3,0-0.5,0-0.8
			c3.2-1.6,10.6-6.2,13.5-14.1c1.9-5.3,1.3-10.9-1.8-16.8l-0.5-1l-1,0.4c-7.8,3.3-13.1,8.2-15.2,14c-1.9,5.3-1.2,11.4,2,17.6l0.5,1
			l0,0c0.1,2.8,0.8,5.4,1.7,7.3h-7.7V57c0-4-2.7-6.9-5.7-10.2c-4.1-4.4-8.8-9.5-8.8-18.9C14.5,13.8,26,2.4,40,2.4
			c14,0,25.5,11.4,25.5,25.5C65.5,37.3,60.8,42.4,56.7,46.8 M47.3,72.7H32.7c-1.6,0-2.9-1-3.4-2.4h4.6v-2.4h-4.8v-2.4h4.8V63h-4.8
			v-2.4h9.7h0c0,0,0,0,0,0h12.2V63H36.4v2.4h14.5v2.4H36.4v2.4h14.3C50.2,71.7,48.9,72.7,47.3,72.7 M40,77.6c-1.6,0-2.9-1-3.4-2.4
			h6.9C42.9,76.6,41.6,77.6,40,77.6 M40,0C24.6,0,12.1,12.5,12.1,27.9c0,10.4,5.2,16.1,9.5,20.6c2.8,3.1,5.1,5.5,5.1,8.5v1.2v1.2
			v9.7c0,3.3,2.7,6.1,6.1,6.1h1.3c0.6,2.8,3,4.8,5.9,4.8c2.9,0,5.4-2.1,5.9-4.8h1.3c3.3,0,6.1-2.7,6.1-6.1v-9.7v-1.2V57
			c0-3,2.2-5.5,5.1-8.5c4.2-4.5,9.5-10.2,9.5-20.6C67.9,12.5,55.4,0,40,0"/>
	</g>
</g>
</svg>
