<?xml version="1.0" encoding="utf-8"?>
<!-- Generator: Adobe Illustrator 23.0.6, SVG Export Plug-In . SVG Version: 6.00 Build 0)  -->
<svg version="1.1" id="Layer_1" xmlns="http://www.w3.org/2000/svg" xmlns:xlink="http://www.w3.org/1999/xlink" x="0px" y="0px"
	 viewBox="0 0 80 80" style="enable-background:new 0 0 80 80;" xml:space="preserve">
<style type="text/css">
	.st0{fill:#FFFFFF;}
	.st1{fill:url(#SVGID_1_);}
	.st2{fill:url(#SVGID_2_);}
	.st3{fill:url(#SVGID_3_);}
	.st4{fill:url(#SVGID_4_);}
	.st5{fill:url(#SVGID_5_);}
	.st6{fill:url(#SVGID_6_);}
	.st7{fill:url(#SVGID_7_);}
	.st8{fill:url(#SVGID_8_);}
	.st9{fill:url(#SVGID_9_);}
</style>
<g>
	<g>
		<path class="st0" d="M75.6,58.1H75V6.9H30.8c0.5,0.8,0.8,1.6,1.1,2.5h40.6v48.8H35v2.5h38.8h1.9c1,0,1.9,0.8,1.9,1.9
			c0,1-0.8,1.9-1.9,1.9H35v2.5h40.6c2.4,0,4.4-2,4.4-4.4C80,60.1,78,58.1,75.6,58.1"/>
		<path class="st0" d="M8.8,56.9c-0.7,0-1.3,0.6-1.3,1.3c0,0.7,0.6,1.2,1.3,1.2c0.7,0,1.3-0.6,1.3-1.2C10,57.4,9.4,56.9,8.8,56.9"/>
		<path class="st0" d="M8.8,51.9c-0.7,0-1.3,0.6-1.3,1.3c0,0.7,0.6,1.2,1.3,1.2c0.7,0,1.3-0.6,1.3-1.2C10,52.4,9.4,51.9,8.8,51.9"/>
		<path class="st0" d="M8.8,46.9c-0.7,0-1.3,0.6-1.3,1.3c0,0.7,0.6,1.2,1.3,1.2c0.7,0,1.3-0.6,1.3-1.2C10,47.4,9.4,46.9,8.8,46.9"/>
		<path class="st0" d="M8.8,36.9c-0.7,0-1.3,0.6-1.3,1.3c0,0.7,0.6,1.2,1.3,1.2c0.7,0,1.3-0.6,1.3-1.2C10,37.4,9.4,36.9,8.8,36.9"/>
		<path class="st0" d="M8.8,41.9c-0.7,0-1.3,0.6-1.3,1.3c0,0.7,0.6,1.2,1.3,1.2c0.7,0,1.3-0.6,1.3-1.2C10,42.4,9.4,41.9,8.8,41.9"/>
		<path class="st0" d="M20,5.6c4.1,0,7.5,3.4,7.5,7.5c0,4.1-3.4,7.5-7.5,7.5c-4.1,0-7.5-3.4-7.5-7.5C12.5,9,15.9,5.6,20,5.6
			 M20,23.1c5.5,0,10-4.5,10-10c0-5.5-4.5-10-10-10s-10,4.5-10,10C10,18.6,14.5,23.1,20,23.1"/>
		<path class="st0" d="M40,47.4c0.8,0.5,1.6,0.7,2.5,0.7c1.3,0,2.6-0.5,3.5-1.5l10-10c0.9-0.9,1.5-2.2,1.5-3.5c0-2.8-2.2-5-5-5
			c-1.3,0-2.6,0.5-3.5,1.5l-6.5,6.5l-7.7-7.7c-0.9-1-2.2-1.5-3.6-1.5H25l-0.8,0l-0.4,0.7c0,0-1.7,3.1-4.5,3.1c-2.9,0-4.5-3-4.5-3.1
			l-0.4-0.7H8.8c-4.8,0-8.8,3.9-8.8,8.8v26.3c0,2.8,2.2,5,5,5c0.9,0,1.8-0.2,2.5-0.7v9.4c0,0.7,0.6,1.3,1.2,1.3
			c0.7,0,1.3-0.6,1.3-1.3V61.9H7.5c0,1.4-1.1,2.5-2.5,2.5c-1.4,0-2.5-1.1-2.5-2.5V35.6c0-3.4,2.8-6.3,6.2-6.3h4.3
			c0.8,1.2,2.9,3.8,6.3,3.8c3.4,0,5.5-2.5,6.3-3.8h5.5c0.7,0,1.3,0.3,1.8,0.7l9.5,9.5l8.2-8.2c0.5-0.5,1.1-0.7,1.8-0.7
			c1.4,0,2.5,1.1,2.5,2.5c0,0.7-0.3,1.3-0.7,1.8l-10,10c-0.5,0.5-1.1,0.7-1.8,0.7c-0.7,0-1.3-0.3-1.8-0.7L30,34.2v41.5
			c0,0.7,0.6,1.3,1.2,1.3c0.7,0,1.3-0.6,1.3-1.3V40.2l7.3,7.3L40,47.4z"/>
		<path class="st0" d="M22.5,68.2h-5c-0.7,0-1.3,0.6-1.3,1.3v6.1c0,0.7,0.6,1.3,1.3,1.3c0.7,0,1.2-0.6,1.2-1.3v-4.9h2.5v4.9
			c0,0.7,0.6,1.3,1.3,1.3c0.7,0,1.3-0.6,1.3-1.3v-6.1C23.8,68.8,23.2,68.2,22.5,68.2"/>
	</g>
	<g>
		<linearGradient id="SVGID_1_" gradientUnits="userSpaceOnUse" x1="4.32" y1="20.2892" x2="79.8649" y2="63.905">
			<stop  offset="0" style="stop-color:#BFD93B"/>
			<stop  offset="1" style="stop-color:#0C7AE6"/>
		</linearGradient>
		<path class="st1" d="M75.6,58.1H75V6.9H30.8c0.5,0.8,0.8,1.6,1.1,2.5h40.6v48.8H35v2.5h38.8h1.9c1,0,1.9,0.8,1.9,1.9
			c0,1-0.8,1.9-1.9,1.9H35v2.5h40.6c2.4,0,4.4-2,4.4-4.4C80,60.1,78,58.1,75.6,58.1"/>
		<linearGradient id="SVGID_2_" gradientUnits="userSpaceOnUse" x1="4.32" y1="20.2892" x2="79.8649" y2="63.905">
			<stop  offset="0" style="stop-color:#BFD93B"/>
			<stop  offset="1" style="stop-color:#0C7AE6"/>
		</linearGradient>
		<path class="st2" d="M8.8,56.9c-0.7,0-1.3,0.6-1.3,1.3c0,0.7,0.6,1.2,1.3,1.2c0.7,0,1.3-0.6,1.3-1.2C10,57.4,9.4,56.9,8.8,56.9"/>
		<linearGradient id="SVGID_3_" gradientUnits="userSpaceOnUse" x1="4.32" y1="20.2892" x2="79.8649" y2="63.905">
			<stop  offset="0" style="stop-color:#BFD93B"/>
			<stop  offset="1" style="stop-color:#0C7AE6"/>
		</linearGradient>
		<path class="st3" d="M8.8,51.9c-0.7,0-1.3,0.6-1.3,1.3c0,0.7,0.6,1.2,1.3,1.2c0.7,0,1.3-0.6,1.3-1.2C10,52.4,9.4,51.9,8.8,51.9"/>
		<linearGradient id="SVGID_4_" gradientUnits="userSpaceOnUse" x1="4.32" y1="20.2892" x2="79.8649" y2="63.905">
			<stop  offset="0" style="stop-color:#BFD93B"/>
			<stop  offset="1" style="stop-color:#0C7AE6"/>
		</linearGradient>
		<path class="st4" d="M8.8,46.9c-0.7,0-1.3,0.6-1.3,1.3c0,0.7,0.6,1.2,1.3,1.2c0.7,0,1.3-0.6,1.3-1.2C10,47.4,9.4,46.9,8.8,46.9"/>
		<linearGradient id="SVGID_5_" gradientUnits="userSpaceOnUse" x1="4.32" y1="20.2892" x2="79.8649" y2="63.905">
			<stop  offset="0" style="stop-color:#BFD93B"/>
			<stop  offset="1" style="stop-color:#0C7AE6"/>
		</linearGradient>
		<path class="st5" d="M8.8,36.9c-0.7,0-1.3,0.6-1.3,1.3c0,0.7,0.6,1.2,1.3,1.2c0.7,0,1.3-0.6,1.3-1.2C10,37.4,9.4,36.9,8.8,36.9"/>
		<linearGradient id="SVGID_6_" gradientUnits="userSpaceOnUse" x1="4.32" y1="20.2892" x2="79.8649" y2="63.905">
			<stop  offset="0" style="stop-color:#BFD93B"/>
			<stop  offset="1" style="stop-color:#0C7AE6"/>
		</linearGradient>
		<path class="st6" d="M8.8,41.9c-0.7,0-1.3,0.6-1.3,1.3c0,0.7,0.6,1.2,1.3,1.2c0.7,0,1.3-0.6,1.3-1.2C10,42.4,9.4,41.9,8.8,41.9"/>
		<linearGradient id="SVGID_7_" gradientUnits="userSpaceOnUse" x1="4.32" y1="20.2892" x2="79.8649" y2="63.905">
			<stop  offset="0" style="stop-color:#BFD93B"/>
			<stop  offset="1" style="stop-color:#0C7AE6"/>
		</linearGradient>
		<path class="st7" d="M20,5.6c4.1,0,7.5,3.4,7.5,7.5c0,4.1-3.4,7.5-7.5,7.5c-4.1,0-7.5-3.4-7.5-7.5C12.5,9,15.9,5.6,20,5.6
			 M20,23.1c5.5,0,10-4.5,10-10c0-5.5-4.5-10-10-10s-10,4.5-10,10C10,18.6,14.5,23.1,20,23.1"/>
		<linearGradient id="SVGID_8_" gradientUnits="userSpaceOnUse" x1="4.32" y1="20.2892" x2="79.8649" y2="63.905">
			<stop  offset="0" style="stop-color:#BFD93B"/>
			<stop  offset="1" style="stop-color:#0C7AE6"/>
		</linearGradient>
		<path class="st8" d="M40,47.4c0.8,0.5,1.6,0.7,2.5,0.7c1.3,0,2.6-0.5,3.5-1.5l10-10c0.9-0.9,1.5-2.2,1.5-3.5c0-2.8-2.2-5-5-5
			c-1.3,0-2.6,0.5-3.5,1.5l-6.5,6.5l-7.7-7.7c-0.9-1-2.2-1.5-3.6-1.5H25l-0.8,0l-0.4,0.7c0,0-1.7,3.1-4.5,3.1c-2.9,0-4.5-3-4.5-3.1
			l-0.4-0.7H8.8c-4.8,0-8.8,3.9-8.8,8.8v26.3c0,2.8,2.2,5,5,5c0.9,0,1.8-0.2,2.5-0.7v9.4c0,0.7,0.6,1.3,1.2,1.3
			c0.7,0,1.3-0.6,1.3-1.3V61.9H7.5c0,1.4-1.1,2.5-2.5,2.5c-1.4,0-2.5-1.1-2.5-2.5V35.6c0-3.4,2.8-6.3,6.2-6.3h4.3
			c0.8,1.2,2.9,3.8,6.3,3.8c3.4,0,5.5-2.5,6.3-3.8h5.5c0.7,0,1.3,0.3,1.8,0.7l9.5,9.5l8.2-8.2c0.5-0.5,1.1-0.7,1.8-0.7
			c1.4,0,2.5,1.1,2.5,2.5c0,0.7-0.3,1.3-0.7,1.8l-10,10c-0.5,0.5-1.1,0.7-1.8,0.7c-0.7,0-1.3-0.3-1.8-0.7L30,34.2v41.5
			c0,0.7,0.6,1.3,1.2,1.3c0.7,0,1.3-0.6,1.3-1.3V40.2l7.3,7.3L40,47.4z"/>
		<linearGradient id="SVGID_9_" gradientUnits="userSpaceOnUse" x1="4.32" y1="20.2892" x2="79.8649" y2="63.905">
			<stop  offset="0" style="stop-color:#BFD93B"/>
			<stop  offset="1" style="stop-color:#0C7AE6"/>
		</linearGradient>
		<path class="st9" d="M22.5,68.2h-5c-0.7,0-1.3,0.6-1.3,1.3v6.1c0,0.7,0.6,1.3,1.3,1.3c0.7,0,1.2-0.6,1.2-1.3v-4.9h2.5v4.9
			c0,0.7,0.6,1.3,1.3,1.3c0.7,0,1.3-0.6,1.3-1.3v-6.1C23.8,68.8,23.2,68.2,22.5,68.2"/>
	</g>
</g>
</svg>
