<?xml version="1.0" encoding="utf-8"?>
<!-- Generator: Adobe Illustrator 23.0.6, SVG Export Plug-In . SVG Version: 6.00 Build 0)  -->
<svg version="1.1" id="Layer_1" xmlns="http://www.w3.org/2000/svg" xmlns:xlink="http://www.w3.org/1999/xlink" x="0px" y="0px"
	 viewBox="0 0 80 80" style="enable-background:new 0 0 80 80;" xml:space="preserve">
<style type="text/css">
	.st0{fill:#FFFFFF;}
	.st1{fill:url(#SVGID_1_);}
	.st2{fill:url(#SVGID_2_);}
	.st3{fill:url(#SVGID_3_);}
	.st4{fill:url(#SVGID_4_);}
	.st5{fill:url(#SVGID_5_);}
	.st6{fill:url(#SVGID_6_);}
	.st7{fill:url(#SVGID_7_);}
	.st8{fill:url(#SVGID_8_);}
	.st9{fill:url(#SVGID_9_);}
	.st10{fill:url(#SVGID_10_);}
	.st11{fill:url(#SVGID_11_);}
	.st12{fill:url(#SVGID_12_);}
	.st13{fill:url(#SVGID_13_);}
	.st14{fill:url(#SVGID_14_);}
	.st15{fill:url(#SVGID_15_);}
	.st16{fill:url(#SVGID_16_);}
	.st17{fill:url(#SVGID_17_);}
	.st18{fill:url(#SVGID_18_);}
	.st19{fill:url(#SVGID_19_);}
	.st20{fill:url(#SVGID_20_);}
	.st21{fill:url(#SVGID_21_);}
	.st22{fill:url(#SVGID_22_);}
	.st23{fill:url(#SVGID_23_);}
	.st24{fill:url(#SVGID_24_);}
	.st25{fill:url(#SVGID_25_);}
	.st26{fill:url(#SVGID_26_);}
	.st27{fill:url(#SVGID_27_);}
</style>
<g>
	<g>
		<path class="st0" d="M65,21.9c0-0.7-0.6-1.2-1.2-1.2c-0.7,0-1.2,0.6-1.2,1.2c0,0.7,0.6,1.2,1.2,1.2C64.4,23.1,65,22.6,65,21.9"/>
		<path class="st0" d="M40,23.1c-0.7,0-1.2,0.6-1.2,1.2s0.6,1.2,1.2,1.2c0.7,0,1.2-0.6,1.2-1.2S40.7,23.1,40,23.1"/>
		<path class="st0" d="M60,15.6c0-0.7-0.6-1.2-1.2-1.2c-0.7,0-1.2,0.6-1.2,1.2c0,0.7,0.6,1.2,1.2,1.2C59.4,16.9,60,16.3,60,15.6"/>
		<path class="st0" d="M20,23.1c-0.7,0-1.2,0.6-1.2,1.2s0.6,1.2,1.2,1.2c0.7,0,1.2-0.6,1.2-1.2S20.7,23.1,20,23.1"/>
		<path class="st0" d="M53.8,16.9c0.7,0,1.2-0.6,1.2-1.2s-0.6-1.2-1.2-1.2c-0.7,0-1.2,0.6-1.2,1.2S53.1,16.9,53.8,16.9"/>
		<path class="st0" d="M32.5,18.1c-0.7,0-1.2,0.6-1.2,1.2c0,0.7,0.6,1.2,1.2,1.2c0.7,0,1.2-0.6,1.2-1.2
			C33.8,18.7,33.2,18.1,32.5,18.1"/>
		<path class="st0" d="M32.5,13.1c-0.7,0-1.2,0.6-1.2,1.2c0,0.7,0.6,1.2,1.2,1.2c0.7,0,1.2-0.6,1.2-1.2
			C33.8,13.7,33.2,13.1,32.5,13.1"/>
		<path class="st0" d="M27.5,13.1c-0.7,0-1.2,0.6-1.2,1.2c0,0.7,0.6,1.2,1.2,1.2c0.7,0,1.2-0.6,1.2-1.2
			C28.8,13.7,28.2,13.1,27.5,13.1"/>
		<path class="st0" d="M27.5,18.1c-0.7,0-1.2,0.6-1.2,1.2c0,0.7,0.6,1.2,1.2,1.2c0.7,0,1.2-0.6,1.2-1.2
			C28.8,18.7,28.2,18.1,27.5,18.1"/>
		<path class="st0" d="M7.5,68.1c-0.7,0-1.2,0.6-1.2,1.2c0,0.7,0.6,1.2,1.2,1.2c0.7,0,1.2-0.6,1.2-1.2C8.8,68.7,8.2,68.1,7.5,68.1"
			/>
		<path class="st0" d="M24.4,39.4c1,0,1.9-0.8,1.9-1.9c0-1-0.8-1.9-1.9-1.9c-1,0-1.9,0.8-1.9,1.9C22.5,38.5,23.3,39.4,24.4,39.4"/>
		<path class="st0" d="M35.6,39.4c1,0,1.9-0.8,1.9-1.9c0-1-0.8-1.9-1.9-1.9c-1,0-1.9,0.8-1.9,1.9C33.8,38.5,34.6,39.4,35.6,39.4"/>
		<path class="st0" d="M52.5,68.1c-0.7,0-1.2,0.6-1.2,1.2c0,0.7,0.6,1.2,1.2,1.2c0.7,0,1.2-0.6,1.2-1.2
			C53.8,68.7,53.2,68.1,52.5,68.1"/>
		<path class="st0" d="M47.5,68.1c-0.7,0-1.2,0.6-1.2,1.2c0,0.7,0.6,1.2,1.2,1.2c0.7,0,1.2-0.6,1.2-1.2
			C48.8,68.7,48.2,68.1,47.5,68.1"/>
		<path class="st0" d="M12.5,68.1c-0.7,0-1.2,0.6-1.2,1.2c0,0.7,0.6,1.2,1.2,1.2c0.7,0,1.2-0.6,1.2-1.2
			C13.8,68.7,13.2,68.1,12.5,68.1"/>
		<path class="st0" d="M62.5,59.4c0-0.7-0.6-1.2-1.2-1.2c-0.7,0-1.2,0.6-1.2,1.2c0,0.7,0.6,1.2,1.2,1.2
			C61.9,60.6,62.5,60.1,62.5,59.4"/>
		<path class="st0" d="M57.5,59.4c0-0.7-0.6-1.2-1.2-1.2c-0.7,0-1.2,0.6-1.2,1.2c0,0.7,0.6,1.2,1.2,1.2
			C56.9,60.6,57.5,60.1,57.5,59.4"/>
		<path class="st0" d="M72.5,59.4c0-0.7-0.6-1.2-1.2-1.2S70,58.7,70,59.4c0,0.7,0.6,1.2,1.2,1.2S72.5,60.1,72.5,59.4"/>
		<path class="st0" d="M67.5,59.4c0-0.7-0.6-1.2-1.2-1.2S65,58.7,65,59.4c0,0.7,0.6,1.2,1.2,1.2S67.5,60.1,67.5,59.4"/>
		<path class="st0" d="M62.5,33.7c0-1-0.8-1.9-1.9-1.9c-1,0-1.9,0.8-1.9,1.9c0,1,0.8,1.9,1.9,1.9C61.7,35.6,62.5,34.8,62.5,33.7"/>
		<path class="st0" d="M22.5,68.1c-0.7,0-1.2,0.6-1.2,1.2c0,0.7,0.6,1.2,1.2,1.2c0.7,0,1.2-0.6,1.2-1.2
			C23.8,68.7,23.2,68.1,22.5,68.1"/>
		<path class="st0" d="M27.5,68.1c-0.7,0-1.2,0.6-1.2,1.2c0,0.7,0.6,1.2,1.2,1.2c0.7,0,1.2-0.6,1.2-1.2
			C28.8,68.7,28.2,68.1,27.5,68.1"/>
		<path class="st0" d="M17.5,68.1c-0.7,0-1.2,0.6-1.2,1.2c0,0.7,0.6,1.2,1.2,1.2c0.7,0,1.2-0.6,1.2-1.2
			C18.8,68.7,18.2,68.1,17.5,68.1"/>
		<path class="st0" d="M42.5,68.1c-0.7,0-1.2,0.6-1.2,1.2c0,0.7,0.6,1.2,1.2,1.2c0.7,0,1.2-0.6,1.2-1.2
			C43.8,68.7,43.2,68.1,42.5,68.1"/>
		<path class="st0" d="M32.5,68.1c-0.7,0-1.2,0.6-1.2,1.2c0,0.7,0.6,1.2,1.2,1.2c0.7,0,1.2-0.6,1.2-1.2
			C33.8,68.7,33.2,68.1,32.5,68.1"/>
		<path class="st0" d="M37.5,68.1c-0.7,0-1.2,0.6-1.2,1.2c0,0.7,0.6,1.2,1.2,1.2c0.7,0,1.2-0.6,1.2-1.2
			C38.8,68.7,38.2,68.1,37.5,68.1"/>
		<path class="st0" d="M57.5,73.1h-55v-3.8c0-4.8,10.9-9.1,18.8-11l0.1,0.3c0.1,0.2,2.6,5,8.6,5c6.1,0,8.5-4.8,8.6-5l0.1-0.3
			c7.8,1.9,18.8,6.2,18.8,11V73.1z M27,54.6c0.9,0.7,1.9,1,3,1c1.1,0,2.1-0.4,3-1c1.2-0.2,2.3-0.6,3.3-1.1v4.3
			c-0.5,0.8-2.4,3.4-6.2,3.4c-3.9,0-5.8-2.6-6.3-3.4v-4.3C24.8,54,25.9,54.4,27,54.6 M18.8,40v-3.9c0-1.6,0.4-3.1,1.2-4.3h21.3V40
			c0,6.4-3.6,11.2-9.1,12.2l-0.4,0.1l-0.3,0.2c-0.3,0.3-0.8,0.6-1.6,0.6c-0.7,0-1.3-0.3-1.6-0.6l-0.3-0.2l-0.4-0.1
			C22.3,51.2,18.8,46.4,18.8,40 M12.1,48.1c-0.3-1-0.9-3.1-0.9-6.3c0-3.6,2.2-8.2,3.1-10h2.7c-0.6,1.3-0.9,2.7-0.9,4.3V40
			c0,3.1,0.7,5.8,2,8.1H12.1z M12.5,28.1c0-1.1,0.7-2,1.7-2.3l0.5-0.2c0.1,0,0.2,0,0.3,0c0.7,0,1.2-0.6,1.2-1.2
			c0-0.7-0.5-1.2-1.2-1.2c0.5-6.4,5-11.7,11.3-13.3c0.2,0.5,0.6,0.8,1.2,0.8c0.7,0,1.2-0.5,1.2-1.2h0v0c0,0,0,0,0,0c0,0,0,0,0,0V6.9
			h2.5v2.5h0c0,0.7,0.6,1.2,1.2,1.2c0.5,0,1-0.3,1.2-0.8c6.2,1.5,10.8,6.9,11.3,13.3c-0.7,0-1.2,0.6-1.2,1.2c0,0.7,0.6,1.2,1.2,1.2
			c0.1,0,0.2,0,0.3,0l0.5,0.2c1,0.4,1.7,1.3,1.7,2.3v1.2h-35V28.1z M48.7,41.9c0,3.2-0.5,5.2-0.9,6.3h-6.1c1.3-2.3,2-5,2-8.1v-8.1
			h1.9C46.6,33.7,48.7,38.3,48.7,41.9 M69.3,29.4c0.7,1.6,2,5.3,2,8.8c0,2.3-0.5,4.1-0.8,5h-5.3c1.5-2.1,2.4-4.7,2.4-7.7v-6H69.3z
			 M80,60.9c0-6.9-14.2-11.5-17.5-12.5v-2.7c0,0,0.1,0,0.1-0.1H72l0.3-0.7c0.1-0.1,1.4-2.8,1.4-6.8c0-3.3-1-6.7-1.8-8.8h1.8v-3.7
			c0-1.9-1-3.5-2.6-4.4C70.4,15.1,65.9,10.1,60,8.6V8.1c0-1.4-1.1-2.5-2.5-2.5H55c-1.4,0-2.5,1.1-2.5,2.5v0.5
			c-2.1,0.5-4,1.5-5.6,2.8c0.5,0.7,1,1.4,1.4,2.1c1.3-1,2.7-1.8,4.3-2.3c0.2,0.4,0.6,0.7,1.1,0.7c0.7,0,1.2-0.5,1.2-1.2h0V8.1h2.5
			v2.5h0c0,0.7,0.6,1.2,1.2,1.2c0.5,0,0.9-0.3,1.1-0.7c4.4,1.3,7.7,5,8.6,9.5c-0.6,0.1-1,0.6-1,1.2c0,0.7,0.6,1.2,1.2,1.2
			c0.1,0,0.2,0,0.3,0l0.5,0.2c1,0.3,1.7,1.3,1.7,2.4v1.2H53.6c0.1,0.4,0.1,0.8,0.1,1.2v1.2H65v6c0,5-2.8,8.7-7,9.5L57.6,45l-0.3,0.2
			c-0.2,0.2-0.6,0.4-1.1,0.4c-0.5,0-0.9-0.2-1.1-0.4L53.5,47c0.8,0.7,1.7,1.1,2.8,1.1c0.9,0,1.8-0.3,2.5-0.8
			c0.4-0.1,0.9-0.2,1.3-0.4v3c-0.4,0.6-1.5,2-3.7,2c-1.8,0-2.9-0.9-3.5-1.7l-2,1.6c0.8,1,2.5,2.6,5.5,2.6c3.9,0,5.7-2.8,6-3.4
			c6.3,1.9,15.2,6,15.2,9.9v2.3H56.3C51.1,59,42,56.6,38.8,55.8v-4c0.4-0.4,0.9-0.8,1.3-1.2h9.5l0.3-0.7c0.1-0.1,1.4-2.8,1.4-8.1
			c0-3.5-1.7-7.6-2.8-10H50v-3.7c0-1.8-1-3.4-2.5-4.3C47.2,15.7,41.6,9,33.8,7.3V6.9c0-1.4-1.1-2.5-2.5-2.5h-2.5
			c-1.4,0-2.5,1.1-2.5,2.5v0.4C18.4,9,12.8,15.7,12.5,23.8C11,24.7,10,26.3,10,28.1v3.7h1.6c-1.2,2.4-2.8,6.5-2.8,10
			c0,5.2,1.3,7.9,1.4,8.1l0.3,0.7H20c0.4,0.4,0.8,0.8,1.3,1.2v4C16.6,56.9,0,61.3,0,69.4v6.3h60v-6.3c0-1.4-0.5-2.6-1.3-3.7H80V60.9
			z"/>
	</g>
	<g>
		<linearGradient id="SVGID_1_" gradientUnits="userSpaceOnUse" x1="7.5601" y1="28.1977" x2="78.0964" y2="68.9218">
			<stop  offset="0" style="stop-color:#BFD93B"/>
			<stop  offset="1" style="stop-color:#0C7AE6"/>
		</linearGradient>
		<path class="st1" d="M65,21.9c0-0.7-0.6-1.2-1.2-1.2c-0.7,0-1.2,0.6-1.2,1.2c0,0.7,0.6,1.2,1.2,1.2C64.4,23.1,65,22.6,65,21.9"/>
		<linearGradient id="SVGID_2_" gradientUnits="userSpaceOnUse" x1="7.5601" y1="28.1977" x2="78.0964" y2="68.9218">
			<stop  offset="0" style="stop-color:#BFD93B"/>
			<stop  offset="1" style="stop-color:#0C7AE6"/>
		</linearGradient>
		<path class="st2" d="M40,23.1c-0.7,0-1.2,0.6-1.2,1.2s0.6,1.2,1.2,1.2c0.7,0,1.2-0.6,1.2-1.2S40.7,23.1,40,23.1"/>
		<linearGradient id="SVGID_3_" gradientUnits="userSpaceOnUse" x1="7.5601" y1="28.1977" x2="78.0964" y2="68.9218">
			<stop  offset="0" style="stop-color:#BFD93B"/>
			<stop  offset="1" style="stop-color:#0C7AE6"/>
		</linearGradient>
		<path class="st3" d="M60,15.6c0-0.7-0.6-1.2-1.2-1.2c-0.7,0-1.2,0.6-1.2,1.2c0,0.7,0.6,1.2,1.2,1.2C59.4,16.9,60,16.3,60,15.6"/>
		<linearGradient id="SVGID_4_" gradientUnits="userSpaceOnUse" x1="7.5601" y1="28.1977" x2="78.0964" y2="68.9218">
			<stop  offset="0" style="stop-color:#BFD93B"/>
			<stop  offset="1" style="stop-color:#0C7AE6"/>
		</linearGradient>
		<path class="st4" d="M20,23.1c-0.7,0-1.2,0.6-1.2,1.2s0.6,1.2,1.2,1.2c0.7,0,1.2-0.6,1.2-1.2S20.7,23.1,20,23.1"/>
		<linearGradient id="SVGID_5_" gradientUnits="userSpaceOnUse" x1="7.5601" y1="28.1977" x2="78.0964" y2="68.9218">
			<stop  offset="0" style="stop-color:#BFD93B"/>
			<stop  offset="1" style="stop-color:#0C7AE6"/>
		</linearGradient>
		<path class="st5" d="M53.8,16.9c0.7,0,1.2-0.6,1.2-1.2s-0.6-1.2-1.2-1.2c-0.7,0-1.2,0.6-1.2,1.2S53.1,16.9,53.8,16.9"/>
		<linearGradient id="SVGID_6_" gradientUnits="userSpaceOnUse" x1="7.5601" y1="28.1977" x2="78.0964" y2="68.9218">
			<stop  offset="0" style="stop-color:#BFD93B"/>
			<stop  offset="1" style="stop-color:#0C7AE6"/>
		</linearGradient>
		<path class="st6" d="M32.5,18.1c-0.7,0-1.2,0.6-1.2,1.2c0,0.7,0.6,1.2,1.2,1.2c0.7,0,1.2-0.6,1.2-1.2
			C33.8,18.7,33.2,18.1,32.5,18.1"/>
		<linearGradient id="SVGID_7_" gradientUnits="userSpaceOnUse" x1="7.5601" y1="28.1977" x2="78.0964" y2="68.9218">
			<stop  offset="0" style="stop-color:#BFD93B"/>
			<stop  offset="1" style="stop-color:#0C7AE6"/>
		</linearGradient>
		<path class="st7" d="M32.5,13.1c-0.7,0-1.2,0.6-1.2,1.2c0,0.7,0.6,1.2,1.2,1.2c0.7,0,1.2-0.6,1.2-1.2
			C33.8,13.7,33.2,13.1,32.5,13.1"/>
		<linearGradient id="SVGID_8_" gradientUnits="userSpaceOnUse" x1="7.5601" y1="28.1977" x2="78.0964" y2="68.9218">
			<stop  offset="0" style="stop-color:#BFD93B"/>
			<stop  offset="1" style="stop-color:#0C7AE6"/>
		</linearGradient>
		<path class="st8" d="M27.5,13.1c-0.7,0-1.2,0.6-1.2,1.2c0,0.7,0.6,1.2,1.2,1.2c0.7,0,1.2-0.6,1.2-1.2
			C28.8,13.7,28.2,13.1,27.5,13.1"/>
		<linearGradient id="SVGID_9_" gradientUnits="userSpaceOnUse" x1="7.5601" y1="28.1977" x2="78.0964" y2="68.9218">
			<stop  offset="0" style="stop-color:#BFD93B"/>
			<stop  offset="1" style="stop-color:#0C7AE6"/>
		</linearGradient>
		<path class="st9" d="M27.5,18.1c-0.7,0-1.2,0.6-1.2,1.2c0,0.7,0.6,1.2,1.2,1.2c0.7,0,1.2-0.6,1.2-1.2
			C28.8,18.7,28.2,18.1,27.5,18.1"/>
		<linearGradient id="SVGID_10_" gradientUnits="userSpaceOnUse" x1="7.5601" y1="28.1977" x2="78.0964" y2="68.9218">
			<stop  offset="0" style="stop-color:#BFD93B"/>
			<stop  offset="1" style="stop-color:#0C7AE6"/>
		</linearGradient>
		<path class="st10" d="M7.5,68.1c-0.7,0-1.2,0.6-1.2,1.2c0,0.7,0.6,1.2,1.2,1.2c0.7,0,1.2-0.6,1.2-1.2C8.8,68.7,8.2,68.1,7.5,68.1"
			/>
		<linearGradient id="SVGID_11_" gradientUnits="userSpaceOnUse" x1="7.5601" y1="28.1977" x2="78.0964" y2="68.9218">
			<stop  offset="0" style="stop-color:#BFD93B"/>
			<stop  offset="1" style="stop-color:#0C7AE6"/>
		</linearGradient>
		<path class="st11" d="M24.4,39.4c1,0,1.9-0.8,1.9-1.9c0-1-0.8-1.9-1.9-1.9c-1,0-1.9,0.8-1.9,1.9C22.5,38.5,23.3,39.4,24.4,39.4"/>
		<linearGradient id="SVGID_12_" gradientUnits="userSpaceOnUse" x1="7.5601" y1="28.1977" x2="78.0964" y2="68.9218">
			<stop  offset="0" style="stop-color:#BFD93B"/>
			<stop  offset="1" style="stop-color:#0C7AE6"/>
		</linearGradient>
		<path class="st12" d="M35.6,39.4c1,0,1.9-0.8,1.9-1.9c0-1-0.8-1.9-1.9-1.9c-1,0-1.9,0.8-1.9,1.9C33.8,38.5,34.6,39.4,35.6,39.4"/>
		<linearGradient id="SVGID_13_" gradientUnits="userSpaceOnUse" x1="7.5601" y1="28.1977" x2="78.0964" y2="68.9218">
			<stop  offset="0" style="stop-color:#BFD93B"/>
			<stop  offset="1" style="stop-color:#0C7AE6"/>
		</linearGradient>
		<path class="st13" d="M52.5,68.1c-0.7,0-1.2,0.6-1.2,1.2c0,0.7,0.6,1.2,1.2,1.2c0.7,0,1.2-0.6,1.2-1.2
			C53.8,68.7,53.2,68.1,52.5,68.1"/>
		<linearGradient id="SVGID_14_" gradientUnits="userSpaceOnUse" x1="7.5601" y1="28.1977" x2="78.0964" y2="68.9218">
			<stop  offset="0" style="stop-color:#BFD93B"/>
			<stop  offset="1" style="stop-color:#0C7AE6"/>
		</linearGradient>
		<path class="st14" d="M47.5,68.1c-0.7,0-1.2,0.6-1.2,1.2c0,0.7,0.6,1.2,1.2,1.2c0.7,0,1.2-0.6,1.2-1.2
			C48.8,68.7,48.2,68.1,47.5,68.1"/>
		<linearGradient id="SVGID_15_" gradientUnits="userSpaceOnUse" x1="7.5601" y1="28.1977" x2="78.0964" y2="68.9218">
			<stop  offset="0" style="stop-color:#BFD93B"/>
			<stop  offset="1" style="stop-color:#0C7AE6"/>
		</linearGradient>
		<path class="st15" d="M12.5,68.1c-0.7,0-1.2,0.6-1.2,1.2c0,0.7,0.6,1.2,1.2,1.2c0.7,0,1.2-0.6,1.2-1.2
			C13.8,68.7,13.2,68.1,12.5,68.1"/>
		<linearGradient id="SVGID_16_" gradientUnits="userSpaceOnUse" x1="7.5601" y1="28.1977" x2="78.0964" y2="68.9218">
			<stop  offset="0" style="stop-color:#BFD93B"/>
			<stop  offset="1" style="stop-color:#0C7AE6"/>
		</linearGradient>
		<path class="st16" d="M62.5,59.4c0-0.7-0.6-1.2-1.2-1.2c-0.7,0-1.2,0.6-1.2,1.2c0,0.7,0.6,1.2,1.2,1.2
			C61.9,60.6,62.5,60.1,62.5,59.4"/>
		<linearGradient id="SVGID_17_" gradientUnits="userSpaceOnUse" x1="7.5601" y1="28.1977" x2="78.0964" y2="68.9218">
			<stop  offset="0" style="stop-color:#BFD93B"/>
			<stop  offset="1" style="stop-color:#0C7AE6"/>
		</linearGradient>
		<path class="st17" d="M57.5,59.4c0-0.7-0.6-1.2-1.2-1.2c-0.7,0-1.2,0.6-1.2,1.2c0,0.7,0.6,1.2,1.2,1.2
			C56.9,60.6,57.5,60.1,57.5,59.4"/>
		<linearGradient id="SVGID_18_" gradientUnits="userSpaceOnUse" x1="7.5601" y1="28.1977" x2="78.0964" y2="68.9218">
			<stop  offset="0" style="stop-color:#BFD93B"/>
			<stop  offset="1" style="stop-color:#0C7AE6"/>
		</linearGradient>
		<path class="st18" d="M72.5,59.4c0-0.7-0.6-1.2-1.2-1.2S70,58.7,70,59.4c0,0.7,0.6,1.2,1.2,1.2S72.5,60.1,72.5,59.4"/>
		<linearGradient id="SVGID_19_" gradientUnits="userSpaceOnUse" x1="7.5601" y1="28.1977" x2="78.0964" y2="68.9218">
			<stop  offset="0" style="stop-color:#BFD93B"/>
			<stop  offset="1" style="stop-color:#0C7AE6"/>
		</linearGradient>
		<path class="st19" d="M67.5,59.4c0-0.7-0.6-1.2-1.2-1.2S65,58.7,65,59.4c0,0.7,0.6,1.2,1.2,1.2S67.5,60.1,67.5,59.4"/>
		<linearGradient id="SVGID_20_" gradientUnits="userSpaceOnUse" x1="7.5601" y1="28.1977" x2="78.0964" y2="68.9218">
			<stop  offset="0" style="stop-color:#BFD93B"/>
			<stop  offset="1" style="stop-color:#0C7AE6"/>
		</linearGradient>
		<path class="st20" d="M62.5,33.7c0-1-0.8-1.9-1.9-1.9c-1,0-1.9,0.8-1.9,1.9c0,1,0.8,1.9,1.9,1.9C61.7,35.6,62.5,34.8,62.5,33.7"/>
		<linearGradient id="SVGID_21_" gradientUnits="userSpaceOnUse" x1="7.5601" y1="28.1977" x2="78.0964" y2="68.9218">
			<stop  offset="0" style="stop-color:#BFD93B"/>
			<stop  offset="1" style="stop-color:#0C7AE6"/>
		</linearGradient>
		<path class="st21" d="M22.5,68.1c-0.7,0-1.2,0.6-1.2,1.2c0,0.7,0.6,1.2,1.2,1.2c0.7,0,1.2-0.6,1.2-1.2
			C23.8,68.7,23.2,68.1,22.5,68.1"/>
		<linearGradient id="SVGID_22_" gradientUnits="userSpaceOnUse" x1="7.5601" y1="28.1977" x2="78.0964" y2="68.9218">
			<stop  offset="0" style="stop-color:#BFD93B"/>
			<stop  offset="1" style="stop-color:#0C7AE6"/>
		</linearGradient>
		<path class="st22" d="M27.5,68.1c-0.7,0-1.2,0.6-1.2,1.2c0,0.7,0.6,1.2,1.2,1.2c0.7,0,1.2-0.6,1.2-1.2
			C28.8,68.7,28.2,68.1,27.5,68.1"/>
		<linearGradient id="SVGID_23_" gradientUnits="userSpaceOnUse" x1="7.5601" y1="28.1977" x2="78.0964" y2="68.9218">
			<stop  offset="0" style="stop-color:#BFD93B"/>
			<stop  offset="1" style="stop-color:#0C7AE6"/>
		</linearGradient>
		<path class="st23" d="M17.5,68.1c-0.7,0-1.2,0.6-1.2,1.2c0,0.7,0.6,1.2,1.2,1.2c0.7,0,1.2-0.6,1.2-1.2
			C18.8,68.7,18.2,68.1,17.5,68.1"/>
		<linearGradient id="SVGID_24_" gradientUnits="userSpaceOnUse" x1="7.5601" y1="28.1977" x2="78.0964" y2="68.9218">
			<stop  offset="0" style="stop-color:#BFD93B"/>
			<stop  offset="1" style="stop-color:#0C7AE6"/>
		</linearGradient>
		<path class="st24" d="M42.5,68.1c-0.7,0-1.2,0.6-1.2,1.2c0,0.7,0.6,1.2,1.2,1.2c0.7,0,1.2-0.6,1.2-1.2
			C43.8,68.7,43.2,68.1,42.5,68.1"/>
		<linearGradient id="SVGID_25_" gradientUnits="userSpaceOnUse" x1="7.5601" y1="28.1977" x2="78.0964" y2="68.9218">
			<stop  offset="0" style="stop-color:#BFD93B"/>
			<stop  offset="1" style="stop-color:#0C7AE6"/>
		</linearGradient>
		<path class="st25" d="M32.5,68.1c-0.7,0-1.2,0.6-1.2,1.2c0,0.7,0.6,1.2,1.2,1.2c0.7,0,1.2-0.6,1.2-1.2
			C33.8,68.7,33.2,68.1,32.5,68.1"/>
		<linearGradient id="SVGID_26_" gradientUnits="userSpaceOnUse" x1="7.5601" y1="28.1977" x2="78.0964" y2="68.9218">
			<stop  offset="0" style="stop-color:#BFD93B"/>
			<stop  offset="1" style="stop-color:#0C7AE6"/>
		</linearGradient>
		<path class="st26" d="M37.5,68.1c-0.7,0-1.2,0.6-1.2,1.2c0,0.7,0.6,1.2,1.2,1.2c0.7,0,1.2-0.6,1.2-1.2
			C38.8,68.7,38.2,68.1,37.5,68.1"/>
		<linearGradient id="SVGID_27_" gradientUnits="userSpaceOnUse" x1="7.5601" y1="28.1977" x2="78.0964" y2="68.9218">
			<stop  offset="0" style="stop-color:#BFD93B"/>
			<stop  offset="1" style="stop-color:#0C7AE6"/>
		</linearGradient>
		<path class="st27" d="M57.5,73.1h-55v-3.8c0-4.8,10.9-9.1,18.8-11l0.1,0.3c0.1,0.2,2.6,5,8.6,5c6.1,0,8.5-4.8,8.6-5l0.1-0.3
			c7.8,1.9,18.8,6.2,18.8,11V73.1z M27,54.6c0.9,0.7,1.9,1,3,1c1.1,0,2.1-0.4,3-1c1.2-0.2,2.3-0.6,3.3-1.1v4.3
			c-0.5,0.8-2.4,3.4-6.2,3.4c-3.9,0-5.8-2.6-6.3-3.4v-4.3C24.8,54,25.9,54.4,27,54.6 M18.8,40v-3.9c0-1.6,0.4-3.1,1.2-4.3h21.3V40
			c0,6.4-3.6,11.2-9.1,12.2l-0.4,0.1l-0.3,0.2c-0.3,0.3-0.8,0.6-1.6,0.6c-0.7,0-1.3-0.3-1.6-0.6l-0.3-0.2l-0.4-0.1
			C22.3,51.2,18.8,46.4,18.8,40 M12.1,48.1c-0.3-1-0.9-3.1-0.9-6.3c0-3.6,2.2-8.2,3.1-10h2.7c-0.6,1.3-0.9,2.7-0.9,4.3V40
			c0,3.1,0.7,5.8,2,8.1H12.1z M12.5,28.1c0-1.1,0.7-2,1.7-2.3l0.5-0.2c0.1,0,0.2,0,0.3,0c0.7,0,1.2-0.6,1.2-1.2
			c0-0.7-0.5-1.2-1.2-1.2c0.5-6.4,5-11.7,11.3-13.3c0.2,0.5,0.6,0.8,1.2,0.8c0.7,0,1.2-0.5,1.2-1.2h0v0c0,0,0,0,0,0c0,0,0,0,0,0V6.9
			h2.5v2.5h0c0,0.7,0.6,1.2,1.2,1.2c0.5,0,1-0.3,1.2-0.8c6.2,1.5,10.8,6.9,11.3,13.3c-0.7,0-1.2,0.6-1.2,1.2c0,0.7,0.6,1.2,1.2,1.2
			c0.1,0,0.2,0,0.3,0l0.5,0.2c1,0.4,1.7,1.3,1.7,2.3v1.2h-35V28.1z M48.7,41.9c0,3.2-0.5,5.2-0.9,6.3h-6.1c1.3-2.3,2-5,2-8.1v-8.1
			h1.9C46.6,33.7,48.7,38.3,48.7,41.9 M69.3,29.4c0.7,1.6,2,5.3,2,8.8c0,2.3-0.5,4.1-0.8,5h-5.3c1.5-2.1,2.4-4.7,2.4-7.7v-6H69.3z
			 M80,60.9c0-6.9-14.2-11.5-17.5-12.5v-2.7c0,0,0.1,0,0.1-0.1H72l0.3-0.7c0.1-0.1,1.4-2.8,1.4-6.8c0-3.3-1-6.7-1.8-8.8h1.8v-3.7
			c0-1.9-1-3.5-2.6-4.4C70.4,15.1,65.9,10.1,60,8.6V8.1c0-1.4-1.1-2.5-2.5-2.5H55c-1.4,0-2.5,1.1-2.5,2.5v0.5
			c-2.1,0.5-4,1.5-5.6,2.8c0.5,0.7,1,1.4,1.4,2.1c1.3-1,2.7-1.8,4.3-2.3c0.2,0.4,0.6,0.7,1.1,0.7c0.7,0,1.2-0.5,1.2-1.2h0V8.1h2.5
			v2.5h0c0,0.7,0.6,1.2,1.2,1.2c0.5,0,0.9-0.3,1.1-0.7c4.4,1.3,7.7,5,8.6,9.5c-0.6,0.1-1,0.6-1,1.2c0,0.7,0.6,1.2,1.2,1.2
			c0.1,0,0.2,0,0.3,0l0.5,0.2c1,0.3,1.7,1.3,1.7,2.4v1.2H53.6c0.1,0.4,0.1,0.8,0.1,1.2v1.2H65v6c0,5-2.8,8.7-7,9.5L57.6,45l-0.3,0.2
			c-0.2,0.2-0.6,0.4-1.1,0.4c-0.5,0-0.9-0.2-1.1-0.4L53.5,47c0.8,0.7,1.7,1.1,2.8,1.1c0.9,0,1.8-0.3,2.5-0.8
			c0.4-0.1,0.9-0.2,1.3-0.4v3c-0.4,0.6-1.5,2-3.7,2c-1.8,0-2.9-0.9-3.5-1.7l-2,1.6c0.8,1,2.5,2.6,5.5,2.6c3.9,0,5.7-2.8,6-3.4
			c6.3,1.9,15.2,6,15.2,9.9v2.3H56.3C51.1,59,42,56.6,38.8,55.8v-4c0.4-0.4,0.9-0.8,1.3-1.2h9.5l0.3-0.7c0.1-0.1,1.4-2.8,1.4-8.1
			c0-3.5-1.7-7.6-2.8-10H50v-3.7c0-1.8-1-3.4-2.5-4.3C47.2,15.7,41.6,9,33.8,7.3V6.9c0-1.4-1.1-2.5-2.5-2.5h-2.5
			c-1.4,0-2.5,1.1-2.5,2.5v0.4C18.4,9,12.8,15.7,12.5,23.8C11,24.7,10,26.3,10,28.1v3.7h1.6c-1.2,2.4-2.8,6.5-2.8,10
			c0,5.2,1.3,7.9,1.4,8.1l0.3,0.7H20c0.4,0.4,0.8,0.8,1.3,1.2v4C16.6,56.9,0,61.3,0,69.4v6.3h60v-6.3c0-1.4-0.5-2.6-1.3-3.7H80V60.9
			z"/>
	</g>
</g>
</svg>
