<svg xmlns="http://www.w3.org/2000/svg" viewBox="0 0 25 25"><defs><style>.cls-1{fill:#fff;}</style></defs><title>linkedin</title><g id="Layer_2" data-name="Layer 2"><g id="Layer_1-2" data-name="Layer 1"><path class="cls-1" d="M17.35,0H7.65A7.67,7.67,0,0,0,0,7.65v9.7A7.67,7.67,0,0,0,7.65,25h9.7A7.67,7.67,0,0,0,25,17.35V7.65A7.67,7.67,0,0,0,17.35,0ZM9.68,18H7.26V10.17H9.68ZM8.47,9.11a1.4,1.4,0,1,1,1.4-1.4A1.41,1.41,0,0,1,8.47,9.11ZM18.73,18H16.32V14.17c0-.9,0-2.06-1.26-2.06s-1.45,1-1.45,2V18H11.19V10.17h2.32v1.07h0A2.55,2.55,0,0,1,15.83,10c2.45,0,2.9,1.61,2.9,3.7Z"/></g></g></svg>