<?xml version="1.0" encoding="utf-8"?>
<!-- Generator: Adobe Illustrator 23.0.6, SVG Export Plug-In . SVG Version: 6.00 Build 0)  -->
<svg version="1.1" id="Layer_1" xmlns="http://www.w3.org/2000/svg" xmlns:xlink="http://www.w3.org/1999/xlink" x="0px" y="0px"
	 viewBox="0 0 208 51" style="enable-background:new 0 0 208 51;" xml:space="preserve">
<style type="text/css">
	.st0{fill:#FFFFFF;}
	.st1{fill:#B5DB33;}
</style>
<g>
	<path class="st0" d="M123.2,29.3h-6.6l-7.9,20.9h5.8l1.5-4.4h7.5l0.5,1.5c0.7,2.2,1.8,2.9,4.3,2.9h3L123.2,29.3z M117.4,41.3
		l2.4-6.8l2.3,6.8H117.4z"/>
	<path class="st0" d="M76.1,28.9c-5.1,0-10.2,3.5-10.2,10.8c0,7,4.3,10.9,10.2,10.9c5.4,0,10.3-3.6,10.3-10.9
		C86.4,32.8,82.1,28.9,76.1,28.9 M76.1,45.4c-3.2,0-4.3-2.2-4.3-5.7c0-3.6,1.6-5.6,4.3-5.6c3.2,0,4.4,2.2,4.4,5.6
		C80.5,43.3,78.9,45.4,76.1,45.4"/>
	<path class="st0" d="M104,42.3c2.2-1,3.4-3.3,3.4-5.8c0-4.7-2.8-7.2-8.7-7.2h-9.1v20.9h5.7v-6.7h3.6l1.6,3.6c0.9,2.1,2,3,4.6,3h3.1
		L104,42.3z M97.9,38.9h-2.6V34h2.7c2.5,0,3.4,0.7,3.4,2.5C101.5,38.2,100.5,38.9,97.9,38.9"/>
	<path class="st0" d="M185.5,29.3h5.8l5.4,9.5l5.1-9.5h3c2.1,0,2.8,1,2.8,2.8v18.1h-5.5V37.7l-3.6,6.6h-4l-3.6-6.6v12.6h-5.5V29.3z"
		/>
	<path class="st0" d="M175.3,29.3h3.1c1.9,0,2.8,1,2.8,2.8v18.1h-5.9V29.3z"/>
	<path class="st0" d="M172.8,34.5h-6.2v15.7h-5.9V34.5h-6.4v-5.2H170c2,0,2.8,1,2.8,2.8V34.5z"/>
	<path class="st0" d="M133,29.3h5.3l8,12v-12h2.7c2,0,2.8,1,2.8,2.8v18.1h-5.2l-8.1-11.6v11.6H133V29.3z"/>
	<path class="st0" d="M64.5,34.5h-6.2v15.7h-5.9V34.5H46v-5.2h15.7c2,0,2.8,1,2.8,2.8V34.5z"/>
	<path class="st0" d="M34.2,28.9c-5.1,0-10.2,3.5-10.2,10.8c0,7,4.3,10.9,10.2,10.9c5.4,0,10.3-3.6,10.3-10.9
		C44.5,32.8,40.2,28.9,34.2,28.9 M34.2,45.4c-3.2,0-4.3-2.2-4.3-5.7c0-3.6,1.6-5.6,4.3-5.6c3.2,0,4.4,2.2,4.4,5.6
		C38.6,43.3,37,45.4,34.2,45.4"/>
	<path class="st0" d="M7.9,32.7L7.9,32.7l-0.2-0.5c-0.7-2.2-2.2-2.9-4.7-2.9H0l7.1,17.5c1,2.4,2.3,3.7,4.8,3.7
		c0.7,0,1.3-0.1,1.9-0.3L7.9,32.7z"/>
	<path class="st0" d="M17.5,29.3l-4.4,11.8c-0.3,0.7-0.3,1.5,0,2.2l2,6c0.6-0.6,1-1.3,1.4-2.3l7.2-17.7H17.5z"/>
	<path class="st1" d="M90,4c-0.4-0.4-0.6-0.9-0.6-1.5c0-0.6,0.2-1.2,0.6-1.5c0.4-0.4,1-0.6,1.6-0.6c0.7,0,1.2,0.2,1.6,0.6
		c0.4,0.4,0.6,0.9,0.6,1.5c0,0.6-0.2,1.2-0.7,1.5c-0.4,0.4-1,0.6-1.7,0.6C90.9,4.6,90.4,4.4,90,4 M89.6,6.3h2c0.7,0,1.2,0.2,1.5,0.7
		s0.5,1.1,0.5,1.8v11.6h-4.1V6.3z"/>
	<path class="st1" d="M109.5,7.4c0.9,1,1.3,2.3,1.3,4.1v8.9h-4.1v-8.4c0-1.7-0.7-2.5-2.1-2.5c-0.9,0-1.8,0.4-2.8,1.2v9.6h-4.1V6.3
		h2.1c1,0,1.7,0.5,1.9,1.6c0.6-0.6,1.3-1.1,2-1.4c0.7-0.3,1.5-0.5,2.4-0.5C107.5,6,108.6,6.5,109.5,7.4"/>
	<path class="st1" d="M114,19.6v-3.2c0.7,0.3,1.5,0.6,2.3,0.8c0.9,0.2,1.7,0.3,2.5,0.3c1,0,1.8-0.1,2.2-0.2c0.5-0.2,0.7-0.5,0.7-0.9
		c0-0.4-0.2-0.7-0.5-0.9c-0.3-0.2-0.9-0.4-1.8-0.5l-1.2-0.3c-0.8-0.2-1.6-0.5-2.1-0.8c-0.6-0.3-1.1-0.7-1.4-1.3
		c-0.4-0.6-0.6-1.4-0.6-2.3c0-1.3,0.5-2.3,1.6-3.1c1-0.8,2.5-1.1,4.3-1.1c1.4,0,2.6,0.2,3.5,0.6c0.5,0.3,0.9,0.6,1.1,0.9
		c0.2,0.3,0.3,0.8,0.3,1.5v1.2c-0.6-0.3-1.3-0.6-2-0.7c-0.7-0.2-1.5-0.3-2.2-0.3c-1,0-1.7,0.1-2.2,0.2c-0.4,0.2-0.7,0.4-0.7,0.8
		c0,0.3,0.2,0.6,0.6,0.8c0.4,0.2,1,0.4,1.9,0.6c0.5,0.1,0.9,0.2,1.3,0.3c1.2,0.3,2.2,0.8,2.9,1.5c0.7,0.6,1,1.6,1,3
		c0,1.4-0.6,2.5-1.7,3.2c-1.1,0.7-2.6,1.1-4.6,1.1C117.2,20.8,115.4,20.4,114,19.6"/>
	<path class="st1" d="M137.7,17.2c0.3-0.1,0.8-0.2,1.3-0.3v3.2c-1.2,0.5-2.4,0.7-3.7,0.7c-3.4,0-5.1-2-5.1-5.9V9.8h-2.6V6.3h2.6V2.1
		h2c0.7,0,1.2,0.2,1.5,0.7c0.3,0.5,0.5,1.1,0.5,1.8v1.7h4.7v3.4h-4.7v4.9c0,0.8,0.2,1.5,0.5,2c0.3,0.5,0.9,0.7,1.7,0.7
		C136.9,17.3,137.3,17.2,137.7,17.2"/>
	<path class="st1" d="M142.6,4c-0.4-0.4-0.6-0.9-0.6-1.5c0-0.6,0.2-1.2,0.6-1.5c0.4-0.4,1-0.6,1.6-0.6c0.7,0,1.2,0.2,1.6,0.6
		c0.4,0.4,0.6,0.9,0.6,1.5c0,0.6-0.2,1.2-0.7,1.5c-0.4,0.4-1,0.6-1.7,0.6S143,4.4,142.6,4 M142.3,6.3h2c0.7,0,1.2,0.2,1.5,0.7
		s0.5,1.1,0.5,1.8v11.6h-4.1V6.3z"/>
	<path class="st1" d="M159.6,17.2c0.3-0.1,0.8-0.2,1.3-0.3v3.2c-1.2,0.5-2.4,0.7-3.7,0.7c-3.4,0-5.1-2-5.1-5.9V9.8h-2.6V6.3h2.6V2.1
		h2c0.7,0,1.2,0.2,1.5,0.7c0.3,0.5,0.5,1.1,0.5,1.8v1.7h4.7v3.4h-4.7v4.9c0,0.8,0.2,1.5,0.5,2c0.3,0.5,0.9,0.7,1.7,0.7
		C158.9,17.3,159.3,17.2,159.6,17.2"/>
	<path class="st1" d="M177.3,6.3v14.1h-2c-1.1,0-1.7-0.5-2-1.6c-0.6,0.6-1.3,1.1-2,1.4c-0.7,0.3-1.5,0.5-2.3,0.5
		c-1.5,0-2.6-0.5-3.5-1.5c-0.8-1-1.3-2.3-1.3-4.1V6.3h4.1v8.4c0,1.7,0.7,2.5,2.1,2.5c1,0,1.9-0.4,2.8-1.2V6.3H177.3z"/>
	<path class="st1" d="M190.4,17.2c0.3-0.1,0.8-0.2,1.3-0.3v3.2c-1.2,0.5-2.4,0.7-3.7,0.7c-3.4,0-5.1-2-5.1-5.9V9.8h-2.6V6.3h2.6V2.1
		h2c0.7,0,1.2,0.2,1.5,0.7c0.3,0.5,0.5,1.1,0.5,1.8v1.7h4.7v3.4h-4.7v4.9c0,0.8,0.2,1.5,0.5,2c0.3,0.5,0.9,0.7,1.7,0.7
		C189.6,17.3,190,17.2,190.4,17.2"/>
	<path class="st1" d="M197.3,20c-1.1-0.6-2-1.4-2.6-2.5c-0.7-1.1-1-2.5-1-4s0.3-2.9,1-4c0.7-1.1,1.6-2,2.6-2.5
		c1.1-0.6,2.3-0.9,3.5-0.9c1.3,0,2.4,0.3,3.5,0.9c1.1,0.6,2,1.4,2.6,2.5c0.7,1.1,1,2.4,1,4s-0.3,2.9-1,4c-0.7,1.1-1.6,2-2.6,2.5
		c-1.1,0.6-2.3,0.9-3.5,0.9C199.6,20.8,198.4,20.5,197.3,20 M203.1,16.2c0.5-0.7,0.8-1.7,0.8-2.9c0-1.2-0.3-2.1-0.8-2.9
		c-0.5-0.7-1.3-1.1-2.2-1.1c-1,0-1.7,0.4-2.2,1.1c-0.5,0.7-0.8,1.7-0.8,2.9c0,1.2,0.3,2.2,0.8,2.9c0.5,0.7,1.3,1,2.3,1
		C201.8,17.3,202.6,17,203.1,16.2"/>
</g>
</svg>
