<?xml version="1.0" encoding="utf-8"?>
<!-- Generator: Adobe Illustrator 23.0.6, SVG Export Plug-In . SVG Version: 6.00 Build 0)  -->
<svg version="1.1" id="Layer_1" xmlns="http://www.w3.org/2000/svg" xmlns:xlink="http://www.w3.org/1999/xlink" x="0px" y="0px"
	 viewBox="0 0 70.5 51" style="enable-background:new 0 0 70.5 51;" xml:space="preserve">
<style type="text/css">
	.st0{fill:#FFFFFF;}
	.st1{fill:#B5DB33;}
</style>
<g>
	<path class="st0" d="M33.2,8.4L33.2,8.4l-0.4-1.1c-1.7-5.1-5.2-6.8-11.1-6.8h-7.3l16.9,41.3c2.3,5.7,5.5,8.7,11.3,8.7
		c1.7,0,3.2-0.3,4.5-0.8L33.2,8.4z"/>
	<path class="st0" d="M55.8,0.5L45.5,28.4c-0.6,1.7-0.6,3.5-0.1,5.2l4.8,14.1c1.4-1.3,2.5-3.1,3.4-5.4L70.5,0.5H55.8z"/>
	<path class="st1" d="M2.6,25.3h3.6c1.2,0,2.1,0.4,2.7,1.2s0.9,1.9,0.9,3.2V50H2.6V25.3z"/>
	<path class="st1" d="M3.2,21.2c-0.7-0.7-1.1-1.6-1.1-2.7s0.4-2,1.1-2.7c0.8-0.7,1.7-1,2.8-1c1.2,0,2.1,0.3,2.9,1
		c0.8,0.7,1.1,1.6,1.1,2.7s-0.4,2-1.2,2.7s-1.7,1-2.9,1C4.9,22.2,4,21.9,3.2,21.2"/>
	<path class="st1" d="M17.8,49.5c-0.7-0.7-1.1-1.6-1.1-2.7c0-1.1,0.4-2,1.1-2.7c0.8-0.7,1.7-1,2.8-1c1.2,0,2.1,0.3,2.9,1
		s1.1,1.6,1.1,2.7c0,1.1-0.4,2-1.2,2.7c-0.8,0.7-1.7,1-2.9,1C19.4,50.5,18.5,50.2,17.8,49.5"/>
</g>
</svg>
