<svg xmlns="http://www.w3.org/2000/svg" viewBox="0 0 25 25"><defs><style>.cls-1{fill:#fff;}</style></defs><title>youtube</title><g id="Layer_2" data-name="Layer 2"><g id="Layer_1-2" data-name="Layer 1"><path class="cls-1" d="M14.68,12.74l-3.44,1.7c-.14.07-.6,0-.6-.18V10.77c0-.16.46-.26.6-.18l3.29,1.79C14.67,12.46,14.82,12.66,14.68,12.74Z"/><path class="cls-1" d="M17.35,0H7.65A7.67,7.67,0,0,0,0,7.65v9.7A7.67,7.67,0,0,0,7.65,25h9.7A7.67,7.67,0,0,0,25,17.35V7.65A7.67,7.67,0,0,0,17.35,0Zm1.84,14.25a3,3,0,0,1-3,3H8.51a3,3,0,0,1-3-3V10.68a3,3,0,0,1,3-3h7.68a3,3,0,0,1,3,3Z"/></g></g></svg>